
<svg xmlns="http://www.w3.org/2000/svg" version="1.1" xmlns:xlink="http://www.w3.org/1999/xlink" preserveAspectRatio="none" x="0px" y="0px" width="140px" height="138px" viewBox="0 0 140 138">
<defs>
<g id="Layer1_0_FILL">
<path fill="#0055FF" stroke="none" d="
M 109.4 100.45
Q 109.35 100.3 109.25 100.3 109.2 100.2 109.1 100.2 109.05 100.25 108.95 100.3 108.9 100.35 108.85 100.5 108.8 100.5 108.75 100.7
L 108.55 101.1
Q 108.5 101.15 108.45 101.2
L 108.4 101.3 106.95 100.5
Q 106.7 100.4 106.6 100.4 106.45 100.35 106.4 100.35 106.35 100.4 106.3 100.45 106.3 100.5 106.3 100.55 106.35 100.65 106.5 100.75 106.7 100.9 107.55 101.35 107.85 101.5 108.05 101.6 108.15 101.65 108.25 101.7 108.35 101.7 108.55 101.7 108.65 101.75 108.7 101.7
L 108.8 101.65
Q 108.85 101.6 108.9 101.5
L 109.15 101
Q 109.2 100.8 109.3 100.65 109.35 100.5 109.4 100.45
M 112.35 90.7
Q 112.35 90.8 112.4 90.8
L 112.45 90.85
Q 112.55 90.8 112.6 90.7 112.6 90.6 112.6 90.55
L 112.55 90.5
Q 112.5 90.5 112.45 90.45 112.3 90.5 112.3 90.6
L 112.3 90.65
Q 112.3 90.7 112.35 90.7
M 108.3 98.4
Q 108.15 98.4 108.05 98.4 107.95 98.45 107.9 98.5 107.8 98.6 107.8 98.65 107.65 98.75 107.65 98.8 107.6 98.9 107.6 99.05 107.7 99.15 107.75 99.25
L 107.95 99.55
Q 108.15 99.8 108.35 99.9 108.45 99.95 108.7 100 108.9 100 109.1 100 109.2 99.95 109.3 99.95 109.45 99.9 109.5 99.75 109.55 99.6 109.6 99.4 109.6 99.25 109.5 99.1 109.4 98.95 109.25 98.8
L 109.1 98.7 108.9 98.6
Q 108.7 98.5 108.6 98.45 108.45 98.4 108.3 98.4
M 108.1 98.9
L 108.25 98.8
Q 108.65 98.85 109 99.1 109.15 99.25 109.2 99.3 109.2 99.45 109.15 99.5 109.05 99.6 108.85 99.6 108.6 99.55 108.45 99.45 108.25 99.3 108.1 98.9
M 108.35 97
Q 108.25 97 108.2 97.1 108.15 97.15 108.15 97.25 108.1 97.3 108.1 97.5 108.15 97.65 108.25 97.85 108.35 97.95 108.6 98.15 108.8 98.25 109.3 98.45 109.4 98.55 109.55 98.55 109.6 98.55 109.8 98.5 110 98.45 110.05 98.45 110.25 98.3 110.3 98.15 110.4 97.9 110.35 97.7 110.35 97.25 110.1 97.05 110.05 96.95 109.95 96.9 109.85 96.85 109.7 96.9 109.65 96.95 109.5 97.05
L 109.45 97.3
Q 109.3 97.5 109.3 97.6 109.25 97.7 109.35 97.75 109.35 97.85 109.45 97.8 109.55 97.85 109.6 97.75 109.65 97.75 109.7 97.65
L 109.9 97.35
Q 109.95 97.4 109.9 97.6 109.9 97.85 109.85 97.9 109.85 98 109.75 98 109.6 98.1 109.55 98.1 109.45 98.05 109.4 98.05 108.9 97.8 108.65 97.6 108.55 97.5 108.55 97.45 108.5 97.3 108.65 97.2 108.7 97.15 108.75 97.1 108.7 97.05 108.65 96.95
L 108.55 96.9
Q 108.45 96.95 108.35 97
M 110.05 94.95
Q 109.95 94.9 109.65 94.95 109.4 94.95 109.3 95.05
L 109.3 95.1 109.2 95.1
Q 109.1 95.1 109 95.15 108.95 95.25 108.95 95.35 108.9 95.45 108.9 95.7 108.95 95.8 108.95 95.85 109 95.95 109.05 95.95 109.1 96.05 109.25 96.15
L 109.5 96.3
Q 109.9 96.6 110.15 96.65 110.5 96.65 110.75 96.5 110.95 96.3 111 96.2 111.05 96.1 111.05 95.95 111.15 95.6 110.95 95.4 110.85 95.3 110.75 95.15 110.35 94.95 110.05 94.95
M 109.35 95.55
Q 109.4 95.55 109.45 95.55 109.55 95.5 109.6 95.4 109.65 95.35 109.85 95.4 110.2 95.35 110.45 95.55 110.6 95.6 110.65 95.65 110.65 95.75 110.65 95.9 110.55 96.1 110.35 96.2 110.15 96.25 109.9 96.05 109.65 95.95 109.5 95.8 109.3 95.65 109.35 95.55
M 111.3 91.4
Q 111.15 91.35 111.05 91.4 111 91.5 110.95 91.55 111.05 91.7 111.2 91.75 111.25 91.8 111.45 91.85 111.5 91.9 111.55 92 111.7 92.1 111.8 92.3
L 111.75 92.3
Q 111.8 92.4 111.7 92.4 111.6 92.35 111.45 92.3 111.3 92.2 111.2 92.2 111.1 92.15 111.05 92.15 110.95 92.15 110.95 92.2 110.9 92.25 111 92.4 111.15 92.55 111.45 92.65 111.55 92.7 111.65 92.75 111.7 92.75 111.9 92.7 112.1 92.7 112.15 92.55 112.15 92.65 112.35 92.8 112.45 92.9 112.55 92.95 112.7 92.95 112.85 92.9 113 92.75 113.05 92.65 113.1 92.55 113.15 92.4 113.15 92.2 112.85 92 112.75 91.9 112.6 91.85
L 112.3 91.75
Q 112.3 91.70078125 112.25 91.7 112.29921875 91.69921875 112.25 91.65 112.2 91.35 112.05 91.15 111.95 91.05 112 91 111.95 90.95 111.95 90.9 111.85 91.2 111.85 91.45 111.85 91.55 111.85 91.6 111.7 91.55 111.5 91.45 111.35 91.35 111.3 91.4
M 112.45 92.3
Q 112.4 92.2 112.35 92.15 112.5 92.25 112.65 92.35
L 112.7 92.35
Q 112.75 92.4 112.7 92.45 112.7 92.55 112.65 92.5 112.6 92.5 112.55 92.45 112.5 92.4 112.45 92.3
M 110.1 92.65
Q 110.05 92.65 109.95 92.75 109.8 92.9 109.7 93 109.55 93.2 109.6 93.35 109.6 93.4 109.65 93.45 109.6 93.5 109.6 93.55 109.65 93.6 109.65 93.65 109.7 93.7 109.8 93.7
L 110.75 94 111.35 94.3
Q 111.5 94.35 111.55 94.35 111.6 94.4 111.7 94.3 111.75 94.25 111.8 94.2 111.8 94.15 111.8 94.1 111.9 93.9 111.95 93.7 112 93.6 111.9 93.3 111.85 93.25 111.8 93.15
L 111.75 93.05
Q 111.55 93 111.45 92.95 111.25 92.85 110.9 92.95
L 110.85 93 110.8 92.9
Q 110.75 92.8 110.6 92.7 110.5 92.7 110.25 92.65 110.2 92.65 110.1 92.65
M 110.95 93.5
L 111 93.4
Q 111.1 93.35 111.3 93.35 111.4 93.35 111.5 93.4 111.5 93.5 111.55 93.65 111.55 93.75 111.5 93.9
L 111.1 93.75
Q 110.95 93.7 110.85 93.6 110.95 93.55 110.95 93.5
M 110.5 93.2
Q 110.55 93.25 110.6 93.3
L 110.55 93.4 110.6 93.45
Q 110.4 93.45 110.3 93.4 110.15 93.35 110.05 93.35 110 93.3 110.1 93.2 110.2 93.05 110.25 93.1 110.4 93.1 110.5 93.2
M 111.2 90.25
L 111.15 90.3 111.2 90.35
Q 111.15 90.4 111.25 90.5 111.3 90.5 111.35 90.55
L 111.4 90.55
Q 111.5 90.55 111.5 90.5 111.55 90.4 111.5 90.25 111.45 90.2 111.4 90.2 111.2 90.15 111.2 90.25
M 110.9 87.6
Q 111 87.65 111.15 87.75
L 112.6 88.1
Q 112.1 88.15 111.85 88.15 111.35 88.2 111 88.35 110.75 88.45 110.75 88.6 110.75 88.65 110.75 88.7
L 110.75 88.75
Q 110.75 88.85 110.85 88.95 110.9 89 111.05 89.05
L 112.4 89.6
Q 112.75 89.8 113 89.8 113.1 89.8 113.15 89.8 113.25 89.75 113.3 89.7 113.3 89.6 113.2 89.5 113.15 89.4 112.95 89.35 112.05 88.95 111.5 88.7 111.8 88.6 112.35 88.6 113.2 88.6 113.5 88.5 113.65 88.45 113.75 88.45 113.85 88.3 113.85 88.2 113.8 88.1 113.65 88.05 113.25 87.8 112.55 87.6 111.6 87.4 111.35 87.3 111.1 87.2 111.05 87.2 110.9 87.2 110.85 87.4 110.8 87.5 110.9 87.6
M 112.45 85.6
Q 112.3 85.7 112.2 85.9 112 86.35 112.2 86.65 112.3 86.85 112.55 87.1 112.7 87.25 112.95 87.25 113.05 87.35 113.45 87.35 113.7 87.4 113.85 87.35 113.95 87.35 114.05 87.2 114.1 87.15 114.25 86.95 114.4 86.75 114.4 86.65 114.5 86.5 114.4 86.25 114.4 86.1 114.35 85.95 114.3 85.8 114.1 85.75 114.15 85.8 114.1 85.95
L 114.05 86.3
Q 113.95 86.45 113.95 86.55 113.85 86.65 113.75 86.75
L 113.7 86.85 113.6 86.9
Q 113.55 86.85 113.45 86.85 113.35 86.85 113.25 86.85
L 113.65 85.95
Q 113.75 85.7 113.7 85.55 113.65 85.45 113.4 85.4 113.3 85.4 113.05 85.4 112.8 85.45 112.6 85.45 112.45 85.55 112.45 85.6
M 112.8 85.9
Q 112.8 85.85 113 85.8 113.1 85.8 113.25 85.75 113.05 86.25 112.8 86.65 112.7 86.55 112.65 86.4 112.65 86.3 112.65 86.1 112.7 85.9 112.8 85.9
M 113.5 83.95
Q 113.4 83.95 113.35 84.05 113.25 84.15 113.3 84.3 113.3 84.4 113.5 84.5 113.7 84.55 113.7 84.6 113.8 84.6 113.85 84.7
L 113.85 84.75
Q 113.85 84.8 113.8 84.8
L 113.75 84.8
Q 113.55 84.75 113.45 84.65 113.35 84.55 113.3 84.5 113.25 84.45 113.1 84.45 113.05 84.45 112.95 84.55 112.9 84.7 112.95 84.85 113 84.95 113.15 85.05 113.3 85.25 113.6 85.3 113.75 85.35 113.9 85.3 114.05 85.3 114.15 85.2 114.25 85.1 114.3 84.95 114.25 85.25 114.45 85.45 114.65 85.7 114.95 85.7 115.15 85.75 115.35 85.6 115.5 85.5 115.55 85.25 115.6 84.95 115.5 84.8 115.45 84.75 115.35 84.65 115.1 84.4 114.7 84.3
L 114.6 84.3
Q 114.55 84.25 114.5 84.2 114.4 83.9 114.35 83.75 114.25 83.95 114.25 84.2 114.15 84.15 114 84.1 113.85 84.1 113.8 84.1 113.7 84.05 113.65 84 113.55 84 113.5 83.95
M 114.9 84.9
Q 114.95 84.9 115 85
L 115.05 85
Q 115.05 85.05 115.05 85.1 115.05 85.15 115.05 85.2
L 115 85.25
Q 114.95 85.3 114.9 85.25 114.8 85.2 114.8 85.15
L 114.75 85.15
Q 114.7 84.95 114.7 84.85 114.75 84.85 114.9 84.9
M 115.75 81.7
Q 115.7 81.75 115.6 81.9 115.4 82.25 115.1 83
L 115 82.5
Q 114.9 82.15 114.9 81.9 114.95 81.75 114.95 81.7 114.95 81.55 114.85 81.5 114.75 81.45 114.65 81.55 114.6 81.6 114.55 81.7 114 82.3 113.7 83.2 113.65 83.5 113.7 83.6 113.75 83.65 113.85 83.65 113.95 83.7 114.05 83.6 114.1 83.55 114.15 83.4 114.25 82.9 114.55 82.4 114.7 83.15 114.95 83.8 115 83.95 115.05 84.05 115.1 84.05 115.15 84.1 115.3 84.05 115.35 84.05 115.35 84 115.4 83.9 115.45 83.85 115.4 83.7 115.4 83.35 115.65 82.8
L 115.9 82.25
Q 115.95 82.05 116 81.95 116.05 81.8 116 81.7 115.95 81.7 115.9 81.65 115.85 81.7 115.75 81.7
M 114.6 80.25
Q 114.65 80.3 114.75 80.4
L 115 80.8
Q 115.15 81.05 115.2 81.05 115.2 81.2 115.25 81.2 115.3 81.3 115.4 81.35 115.5 81.35 115.55 81.3 115.6 81.2 115.55 81 115.8 81.15 116.05 81.25 116.25 81.3 116.3 81.3 116.4 81.3 116.5 81.15 116.55 81.05 116.5 80.95 116.4 80.95 116.3 80.85 116 80.65 115.8 80.55 115.65 80.5 115.6 80.45
L 115.4 80.3
Q 115.2 80.2 115.1 80.15 115 80.05 114.95 80.05 114.9 79.95 114.85 79.9 114.7 79.8 114.65 79.9 114.5 79.95 114.55 80.1 114.5 80.15 114.6 80.25
M 116.75 80.35
Q 116.7 80.3 116.7 80.25 116.65 80.2 116.6 80.15 116.25 79.9 116.1 79.8
L 116.05 79.8 116.4 79.75
Q 116.8 79.75 116.95 79.7 117.15 79.6 117.15 79.4 117.15 79.3 116.95 79.2
L 115.65 78.5
Q 115.4 78.4 115.25 78.45 115.2 78.45 115.15 78.55 115.1 78.65 115.15 78.75 115.2 78.9 115.45 78.95 115.9 79.1 116.25 79.35 115.95 79.4 115.65 79.35 115.4 79.35 115.35 79.35 115.2 79.4 115.1 79.5 115.05 79.6 115.1 79.6 115.05 79.7 115.05 79.8 115.1 79.85 115.35 79.95 115.65 80.15 115.9 80.3 116.15 80.5 116.3 80.5 116.45 80.55 116.6 80.55 116.75 80.55 116.75 80.45 116.8 80.4 116.75 80.35
M 117.6 73.2
Q 117.55 73.15 117.5 73.2
L 117.4 73.25
Q 117.3 73.4 117.2 73.55 117.05 73.8 116.85 74.1
L 116.7 73.95
Q 116.6 73.95 116.55 73.9 116.5 73.9 116.45 74.05 116.3 74.2 116.1 74.55 116 74.8 115.9 75 115.6 75.7 115.5 76.15 115.5 76.25 115.45 76.3 115.5 76.3 115.6 76.35 115.65 76.35 115.75 76.4
L 115.85 76.45
Q 115.9 76.5 116 76.45 115.95 76.55 115.95 76.65 115.9 76.75 115.95 76.8
L 116 76.8
Q 116.05 76.9 116.15 76.9 116.2 76.95 116.25 77 116.2 77.05 116.25 77.1
L 116.15 77.2
Q 116.05 77.4 116 77.5
L 115.9 77.55
Q 115.9 77.6 115.95 77.65 115.95 77.75 116.1 77.75 116.1 77.7 116.2 77.6
L 116.3 77.5 116.4 78.05
Q 116.45 78.1 116.5 78.15
L 116.55 78.2
Q 116.6 78.2 116.65 78.15
L 116.75 77.95
Q 116.8 77.9 116.85 77.85
L 116.9 77.9 117.1 78.05 117.15 78.05 117.3 78.2
Q 117.3 78.25 117.3 78.3 117.35 78.35 117.4 78.4
L 117.5 78.5
Q 117.35 78.55 117.25 78.65 117.15 78.65 117.15 78.75 117.1 78.85 117.15 78.95 117.15 79.1 117.3 79.15
L 117.35 79.15
Q 117.4 79.2 117.5 79.15 117.55 79.15 117.6 79.2
L 117.9 79.15
Q 117.9 79.1 117.95 79.1 117.95 79.15 117.95 79.25 118 79.25 117.95 79.3 118 79.3 118 79.35
L 118.15 79.45
Q 118.2 79.5 118.3 79.5
L 118.45 79.5
Q 118.6 79.5 118.6 79.45
L 118.7 79.4
Q 118.75 79.35 118.75 79.3
L 118.75 79.25 118.8 79.2 118.85 79.1 118.95 79.1 119.05 79 119.05 78.85
Q 119.05 78.65 119.1 78.65
L 119.05 78.45 118.95 78.3 118.9 78.3
Q 118.9 78.2 118.9 78.15
L 118.9 78.05 118.85 77.95
Q 118.8 77.95 118.75 77.9
L 118.7 77.9
Q 118.65 77.85 118.6 77.85
L 118.45 77.85
Q 118.4 77.85 118.3 77.9
L 118.55 77.75 118.85 77.65 118.85 77.55
Q 118.95 77.55 118.9 77.5 118.9 77.45 118.85 77.45 118.8 77.45 118.75 77.4
L 118.65 77.4
Q 118.5 77.35 118.4 77.3
L 118.3 77.25
Q 118.3 77.2 118.4 77.25 118.4 77.2 118.45 77.15 118.85 76.8 119 76.3 119.05 76.25 119.1 75.95
L 119.2 75.6
Q 119.25 75.35 119.25 75.3 119.25 74.9 118.95 74.65 118.9 74.6 118.85 74.6 118.75 74.55 118.65 74.65
L 118.65 74.75 118.75 74.75
Q 118.9 74.8 118.95 74.8 119 74.85 119.05 74.95
L 119.1 75.05 119.1 75.25
Q 119.1 75.4 119 75.7
L 118.8 76.2
Q 118.7 76.45 118.65 76.55 118.55 76.65 118.35 76.85 118.1 77.15 118 77.15 117.85 77.2 117.75 77.15 117.7 77.1 117.65 77.1 117.6 77.1 117.6 77.15 117.55 77.15 117.55 77.25 117.55 77.3 117.65 77.35 117.8 77.45 118 77.4 118.05 77.4 118.15 77.35
L 118.2 77.4 118.6 77.55 118.15 77.8 118.1 77.85 118.05 77.85
Q 118.1 77.95 118.15 77.9 118.2 77.9 118.25 77.95 118.2 78 118.15 78.1
L 118.15 78.05
Q 117.9 77.95 117.75 77.95 117.7 77.95 117.65 77.9
L 117.6 77.95
Q 117.45 77.95 117.4 77.95
L 117.4 77.75 117.35 77.75
Q 117.25 77.75 117.3 77.8 117.25 77.85 117.25 78
L 117.2 77.9 117.15 77.9 116.85 77.6
Q 116.8 77.5 116.75 77.55
L 116.7 77.6
Q 116.65 77.6 116.65 77.75
L 116.55 77.85
Q 116.5 77.7 116.55 77.25 116.55 77.2 116.5 77.15 116.5 77.1 116.4 77.1 116.45 77.05 116.4 77 116.5 76.95 116.55 76.95 116.55 76.9 116.6 76.9 116.65 76.75 116.7 76.6
L 116.7 76.65
Q 116.8 76.85 116.9 76.95 116.95 77 117.1 77.05 117.25 77.1 117.35 77.1 117.45 77.15 117.55 77.1 117.6 77.05 117.7 76.95 117.8 76.85 117.85 76.75
L 117.85 76.8
Q 117.9 76.9 117.85 76.9
L 117.9 76.95 117.85 77 117.9 77.1 117.95 77.05
Q 118 77.05 118 77 118 76.95 118.05 76.85 118.3 76.65 118.55 76.25
L 118.6 76.1
Q 118.7 75.95 118.8 75.6 118.85 75.3 118.9 75.2
L 118.85 75.2
Q 118.8 75.2 118.8 75.25 118.75 75.6 118.6 75.95 118.45 76.15 118.3 76.45 118.2 76.65 118.15 76.65 118.1 76.7 118 76.8
L 118 76.7 117.95 76.7 117.95 76.65 118 76.6
Q 118.05 76.5 118 76.4
L 118 76.3
Q 117.95 76.1 117.7 76
L 117.7 75.95 117.65 75.9
Q 117.55 75.8 117.6 75.75
L 117.7 75.65
Q 117.75 75.55 117.8 75.55
L 117.85 75.6
Q 117.9 75.6 117.9 75.55 118 75.6 118.05 75.6 118.15 75.6 118.25 75.65 118.35 75.65 118.5 75.55 118.55 75.45 118.6 75.3 118.7 75.05 118.7 74.8
L 118.65 74.75 118.55 74.6 118.45 74.5
Q 118.35 74.35 118.25 74.35
L 118.15 74.3
Q 117.85 74.3 117.75 74.3
L 117.65 74.3
Q 117.6 74.25 117.75 74.05 117.8 73.9 117.85 73.8 117.9 73.7 118.05 73.55 118.05 73.5 118.1 73.45 118.1 73.5 118.15 73.5 118.2 73.5 118.25 73.45 118.4 73.4 118.55 73.3
L 118.4 73.7 118.35 73.8
Q 118.45 73.9 118.5 73.85 118.6 73.85 118.7 73.75 118.7970703125 73.7984375 118.9 73.8 118.8 73.8015625 118.8 73.85 118.7 73.9 118.75 74
L 118.75 74.1 118.95 74.1
Q 119.1 74.1 119.3 74.25 119.25 74.3 119.3 74.35
L 119.4 74.4
Q 119.5 74.55 119.7 74.65
L 119.65 74.7 119.45 74.75
Q 119.4 74.7 119.35 74.75 119.3 74.8 119.3 74.85 119.3 74.9 119.45 74.95
L 119.55 75
Q 119.45 75.05 119.4 75.05
L 119.4 75.15
Q 119.5 75.15 119.6 75.2 119.65 75.2 119.75 75.3
L 119.85 75.3
Q 119.95 75.35 119.95 75.3 120 75.35 120.05 75.3 120 75.2 120 75.15
L 119.9 75.05
Q 119.800390625 74.85078125 119.75 74.85 119.800390625 74.8498046875 119.9 74.8 120 74.85 120.05 74.85 120.15 74.85 120.15 74.8 120.15 74.75 120.1 74.65
L 120 74.55
Q 119.95 74.45 119.9 74.45
L 119.6 74.25 119.55 74.25
Q 119.4 74.1 119.1 73.95 119.15 73.9 119.3 73.9 119.45 73.85 119.45 73.8 119.55 73.7 119.5 73.65 119.4 73.6 119.3 73.6
L 119.1 73.6
Q 118.85 73.55 118.7 73.6 118.75 73.5 118.85 73.25 118.85 73.05 118.95 72.95 119 72.85 118.95 72.8 118.95 72.75 118.9 72.75
L 118.85 72.75
Q 118.8 72.75 118.75 72.85 118.5 73 118.5 73.05 118.3 73.25 118.15 73.3 118.1 73.35 118.05 73.4 118 73.35 117.95 73.35 117.85 73.3 117.8 73.2 117.7 73.15 117.6 73.2
M 117.55 73.4
L 117.6 73.4 117.75 73.45 117.8 73.5 117.75 73.55
Q 117.25 74.6 117 75.15 116.55 76.05 116.4 76.75 116.35 76.8 116.3 76.7 116.25 76.7 116.2 76.65
L 116.15 76.65
Q 116.35 75.95 116.45 75.7 116.6 75.15 116.85 74.7 117 74.35 117.35 73.85 117.45 73.55 117.55 73.4
M 118.35 74.75
L 118.45 74.85
Q 118.45 74.95 118.45 75.1 118.45 75.25 118.35 75.35 118.3 75.4 118.25 75.45
L 118.2 75.45
Q 118 75.35 117.75 75.25
L 117.65 75.15 117.7 75.15
Q 117.8 75.25 117.9 75.3
L 118 75.3
Q 118.15 75.35 118.2 75.35 118.25 75.35 118.3 75.3 118.35 75.25 118.3 75.2 118.25 75.1 118.15 75.05 118.05 75.05 118 74.95 117.9 74.85 117.85 74.8 117.75 74.8 117.7 74.8 117.6 74.85 117.6 74.95
L 117.6 75 117.55 74.95 117.5 74.8 117.55 74.75
Q 117.55 74.7 117.6 74.65 117.6 74.6 117.65 74.6 117.75 74.55 117.8 74.5
L 118.2 74.6 118.25 74.65
Q 118.35 74.7 118.3 74.75
L 118.35 74.75
M 116.55 74.9
Q 116.4515625 74.9 116.5 74.95 116.399609375 74.85 116.35 74.85
L 116.25 74.85
Q 116.3 74.7 116.4 74.55
L 116.45 74.55
Q 116.55 74.6 116.5 74.65
L 116.45 74.65 116.35 74.75
Q 116.4 74.8 116.45 74.8 116.5 74.85 116.55 74.9
M 116.8 74.3
Q 116.75 74.4 116.7 74.5
L 116.65 74.5
Q 116.55 74.4 116.5 74.4 116.55 74.3 116.6 74.2 116.7 74.25 116.8 74.3
M 117.45 75.15
L 117.45 75.25
Q 117.5 75.3 117.55 75.35
L 117.5 75.4
Q 117.5 75.45 117.45 75.5 117.4 75.5 117.35 75.65 117.3 75.7 117.35 75.8
L 117.3 75.85
Q 117.15 75.85 116.95 75.9 117.1 75.35 117.3 74.95 117.3 75 117.35 75.1 117.45 75.1 117.45 75.15
M 117.15 76.05
L 117.3 76.1 117.35 76.1
Q 117.4 76.1 117.5 76.2
L 117.7 76.3 117.75 76.45 117.75 76.5 117.7 76.6 117.55 76.75 117.55 76.8
Q 117.55 76.85 117.45 76.9
L 117.4 76.85 117.3 76.9
Q 117.1 76.8 117 76.7 116.95 76.65 116.95 76.55 116.9 76.5 116.95 76.5
L 116.9 76.4
Q 116.95 76.35 116.95 76.25 117 76.2 117 76.15
L 117.1 76.1
Q 117.15 76.1 117.15 76.05
M 118.6 78.1
L 118.65 78.05 118.7 78.1
Q 118.7 78.15 118.65 78.35
L 118.65 78.45 118.6 78.4
Q 118.55 78.35 118.5 78.4 118.45 78.4 118.4 78.45 118.3 78.45 118.4 78.55 118.4 78.65 118.5 78.7 118.55 78.75 118.7 78.7 118.8 78.7 118.85 78.6
L 118.9 78.65 118.8 78.95 118.8 79.05 118.75 79
Q 118.75 78.85 118.6 78.8 118.55 78.8 118.4 78.85 118.3 78.85 118.25 78.85 118.201171875 78.85 118.2 78.9
L 118.2 78.85
Q 118.15 78.9 118 78.9
L 117.9 78.9 117.8 78.85
Q 117.75 78.9 117.65 78.9 117.55 78.95 117.5 78.9
L 117.45 78.9
Q 117.5 78.75 117.6 78.75 117.7 78.7 117.8 78.75
L 117.95 78.75
Q 118 78.75 118.05 78.75 118.15 78.7 118.15 78.75 118.25 78.7 118.2 78.65
L 118.2 78.6 118.15 78.6 118.1 78.55
Q 118.05 78.5 117.9 78.45
L 117.65 78.35
Q 117.55 78.3 117.5 78.3 117.45 78.25 117.5 78.2 117.5 78.1 117.6 78.15
L 117.65 78.15 117.65 78.1 117.7 78.15 118.15 78.3
Q 118.2 78.35 118.25 78.4 118.25 78.35 118.3 78.35 118.35 78.35 118.4 78.3
L 118.4 78.2
Q 118.4 78.15 118.45 78.15 118.5 78.1 118.55 78.1
L 118.6 78.1
M 118.6 79.05
L 118.6 79.2
Q 118.6 79.25 118.5 79.25
L 118.4 79.25
Q 118.4 79.3 118.35 79.3
L 118.35 79.2 118.25 79.2
Q 118.25 79.1 118.3 79.15
L 118.3 79.05
Q 118.25 79.05 118.25 79
L 118.3 78.95 118.35 79 118.45 79
Q 118.5 78.95 118.55 78.95 118.6 79 118.6 79.05
M 116.2 74.95
L 116.3 75 116.35 75
Q 116.4 75.05 116.4 75.1 116.45 75.1 116.4 75.15
L 116.35 75.2 116.25 75.15
Q 116.2 75.1 116.15 75.15
L 116.1 75.2
Q 116.15 75.05 116.2 74.95
M 116.15 75.35
Q 116.2 75.4 116.3 75.4 116.3 75.5 116.25 75.55 116.1 75.45 116.05 75.45 116.05 75.4 116.05 75.35 116.05 75.301171875 116.1 75.25 116.0525390625 75.301171875 116.15 75.35
M 115.95 75.55
Q 116 75.6 116 75.75 116 75.8 116.05 75.85 116.1 75.9 116.15 75.8 116.15 75.75 116.2 75.7 116.15 75.95 116.05 76.25 115.95 76.2 115.75 76.15 115.85 75.85 115.95 75.55
M 117.3 76.25
L 117.2 76.2
Q 117.1 76.15 117 76.25 116.9 76.35 117 76.45 117.05 76.5 117.15 76.5
L 117.25 76.65
Q 117.4 76.7 117.5 76.65 117.55 76.65 117.6 76.6 117.6 76.55 117.6 76.5 117.6 76.45 117.55 76.4 117.5 76.35 117.45 76.3 117.35 76.25 117.3 76.25 Z"/>
</g>

<g id="Layer0_0_FILL">
<path fill="#FFFFFF" stroke="none" d="
M 100.2 7.75
Q 99.4 6.35 97.9 5.75 84.35 -0.2 70.85 0.05 70.6 0 70.35 0 56.05 -0.3 42.6 5.75 41.15 6.4 40.35 7.75
L 28.65 27.5 21.25 20.55 14.4 27.8 23.55 36.45 11.95 57.75
Q 11.4 58.75 11.35 59.9 11.3 61 11.75 62.05
L 12.95 65.05 0 65.05 0 75.05 17 75.05 29.05 104.95 17 110.05 20.9 119.25 32.8 114.2 39.85 131.8
Q 40.35 133.05 41.45 133.9 42.55 134.7 43.9 134.9
L 69.65 138
Q 70.25 138.05 70.85 138
L 96.6 134.9
Q 97.95 134.7 99.05 133.9 100.15 133.05 100.65 131.75
L 107.75 114.2 119.6 119.25 123.5 110.05 111.5 104.95 123.55 75.05 140.5 75.05 140.5 65.05 127.55 65.05 128.8 62.05
Q 129.2 61 129.15 59.9 129.1 58.75 128.55 57.75
L 117 36.45 126.15 27.75 119.2 20.55 111.9 27.5 100.2 7.75
M 99.3 50.2
Q 99.95 50.15 100.5 49.65 105.4 45 108.4 41.65
L 118.65 60.5 100.55 105.25
Q 100.5 105.4 100.4 105.6
L 92.5 125.3 72.25 127.7 72.25 52.85 99.3 50.2
M 41.2 50.2
L 68.25 52.85 68.25 127.7 48.05 125.3 40.1 105.6
Q 40 105.35 39.9 105.15
L 21.9 60.5 32.1 41.65
Q 35.1 45 40.05 49.65 40.55 50.15 41.2 50.2
M 106.4 37.9
Q 103.55 41.2 98.25 46.3
L 70.25 49 42.3 46.3
Q 36.95 41.2 34.15 37.9
L 34.2 37.75 48.15 14.3
Q 58.5 9.95 69.45 10 69.9 10.05 70.4 10.05 81.4 9.75 92.45 14.25
L 106.4 37.9 Z"/>
</g>
</defs>

<g transform="matrix( 1, 0, 0, 1, 0,0) ">
<use xlink:href="#Layer1_0_FILL"/>
</g>

<g transform="matrix( 1, 0, 0, 1, 0,0) ">
<use xlink:href="#Layer0_0_FILL"/>
</g>
</svg>
